<svg xmlns="http://www.w3.org/2000/svg" viewBox="0 0 512 512" role="img" aria-label="RoomRadar">
  <defs>
    <linearGradient id="bg" x1="64" y1="40" x2="448" y2="472" gradientUnits="userSpaceOnUse">
      <stop offset="0" stop-color="#06b6d4"/>
      <stop offset="0.46" stop-color="#0f172a"/>
      <stop offset="1" stop-color="#ff385c"/>
    </linearGradient>
    <linearGradient id="mark" x1="146" y1="148" x2="366" y2="358" gradientUnits="userSpaceOnUse">
      <stop offset="0" stop-color="#ffffff"/>
      <stop offset="1" stop-color="#cffafe"/>
    </linearGradient>
    <filter id="shadow" x="-20%" y="-20%" width="140%" height="140%">
      <feDropShadow dx="0" dy="26" stdDeviation="26" flood-color="#020617" flood-opacity="0.32"/>
    </filter>
  </defs>
  <rect width="512" height="512" rx="116" fill="url(#bg)"/>
  <circle cx="406" cy="104" r="86" fill="#fff" opacity="0.12"/>
  <circle cx="96" cy="420" r="118" fill="#22d3ee" opacity="0.16"/>
  <g filter="url(#shadow)">
    <rect x="108" y="126" width="296" height="260" rx="72" fill="rgba(255,255,255,0.16)" stroke="rgba(255,255,255,0.34)" stroke-width="8"/>
    <path d="M164 294V172h96c52 0 88 29 88 74 0 31-17 55-45 67l53 81h-73l-44-69h-16v69h-59zm59-117v99h31c22 0 36-19 36-49 0-31-14-50-36-50h-31z" fill="url(#mark)"/>
  </g>
  <path d="M150 412c55 38 157 42 215 0" fill="none" stroke="#67e8f9" stroke-width="16" stroke-linecap="round" opacity="0.9"/>
</svg>
