<svg xmlns="http://www.w3.org/2000/svg" viewBox="0 0 512 512" role="img" aria-label="RoomRadar">
  <defs>
    <linearGradient id="bg" x1="48" y1="32" x2="464" y2="480" gradientUnits="userSpaceOnUse">
      <stop offset="0" stop-color="#00a699"/>
      <stop offset="0.42" stop-color="#0f172a"/>
      <stop offset="1" stop-color="#ff385c"/>
    </linearGradient>
  </defs>
  <rect width="512" height="512" fill="url(#bg)"/>
  <circle cx="398" cy="110" r="118" fill="#fff" opacity="0.13"/>
  <circle cx="78" cy="436" r="142" fill="#22d3ee" opacity="0.17"/>
  <rect x="92" y="104" width="328" height="304" rx="84" fill="rgba(255,255,255,0.18)" stroke="rgba(255,255,255,0.32)" stroke-width="9"/>
  <path d="M154 306V166h105c58 0 98 33 98 84 0 34-19 61-50 75l59 87h-80l-49-75h-22v75h-61zm61-85v64h42c25 0 41-12 41-32s-16-32-41-32h-42z" fill="#ffffff"/>
  <path d="M148 430c62 38 156 39 216 0" fill="none" stroke="#67e8f9" stroke-width="17" stroke-linecap="round"/>
</svg>
